<svg style="vertical-align: -0.014ex;" xmlns="http://www.w3.org/2000/svg" width="2.073ex" height="1.731ex" role="img" focusable="false" viewBox="0 -759 916.5 765"><g stroke="currentColor" fill="currentColor" stroke-width="0" transform="scale(1,-1)"><g data-mml-node="math"><g data-mml-node="msup"><g data-mml-node="TeXAtom" data-mjx-texclass="ORD"><g data-mml-node="mi"><path data-c="1D41B" d="M32 686L123 690Q214 694 215 694H221V409Q289 450 378 450Q479 450 539 387T600 221Q600 122 535 58T358 -6H355Q272 -6 203 53L160 1L129 0H98V301Q98 362 98 435T99 525Q99 591 97 604T83 620Q69 624 42 624H29V686H32ZM227 105L232 99Q237 93 242 87T258 73T280 59T306 49T339 45Q380 45 411 66T451 131Q457 160 457 230Q457 264 456 284T448 329T430 367T396 389T343 398Q282 398 235 355L227 348V105Z"></path></g></g><g data-mml-node="mo" transform="translate(672,363) scale(0.707)"><path data-c="2032" d="M79 43Q73 43 52 49T30 61Q30 68 85 293T146 528Q161 560 198 560Q218 560 240 545T262 501Q262 496 260 486Q259 479 173 263T84 45T79 43Z"></path></g></g></g></g></svg>
