<svg style="vertical-align: -0.489ex;" xmlns="http://www.w3.org/2000/svg" width="6.983ex" height="2.061ex" role="img" focusable="false" viewBox="0 -695 3086.6 911"><g stroke="currentColor" fill="currentColor" stroke-width="0" transform="scale(1,-1)"><g data-mml-node="math"><g data-mml-node="TeXAtom" data-mjx-texclass="ORD"><g data-mml-node="mi"><path data-c="1D423" d="M104 610Q104 649 130 672T191 695Q225 693 249 670T273 610Q273 572 249 549T189 525Q152 525 128 548T104 610ZM78 442L173 446L268 450H274V196Q274 -5 274 -37T269 -83Q256 -132 201 -166T71 -200Q10 -200 -30 -173T-71 -102Q-71 -70 -51 -51T-1 -31Q27 -31 48 -49T69 -100Q69 -121 53 -147H56Q66 -149 77 -149H80Q90 -149 100 -146T127 -125T149 -73Q151 -55 151 149V362Q150 364 148 366T145 370T142 373T138 375T133 377T124 378T113 379T97 380H75V442H78Z"></path></g></g><g data-mml-node="mo" transform="translate(628.8,0)"><path data-c="3D" d="M56 347Q56 360 70 367H707Q722 359 722 347Q722 336 708 328L390 327H72Q56 332 56 347ZM56 153Q56 168 72 173H708Q722 163 722 153Q722 140 707 133H70Q56 140 56 153Z"></path></g><g data-mml-node="mi" transform="translate(1684.6,0)"><path data-c="1D70C" d="M58 -216Q25 -216 23 -186Q23 -176 73 26T127 234Q143 289 182 341Q252 427 341 441Q343 441 349 441T359 442Q432 442 471 394T510 276Q510 219 486 165T425 74T345 13T266 -10H255H248Q197 -10 165 35L160 41L133 -71Q108 -168 104 -181T92 -202Q76 -216 58 -216ZM424 322Q424 359 407 382T357 405Q322 405 287 376T231 300Q217 269 193 170L176 102Q193 26 260 26Q298 26 334 62Q367 92 389 158T418 266T424 322Z"></path></g><g data-mml-node="TeXAtom" data-mjx-texclass="ORD" transform="translate(2201.6,0)"><g data-mml-node="mi"><path data-c="1D42F" d="M401 444Q413 441 495 441Q568 441 574 444H580V382H510L409 156Q348 18 339 6Q331 -4 320 -4Q318 -4 313 -4T303 -3H288Q273 -3 264 12T221 102Q206 135 197 156L96 382H26V444H34Q49 441 145 441Q252 441 270 444H279V382H231L284 264Q335 149 338 149Q338 150 389 264T442 381Q442 382 418 382H394V444H401Z"></path></g></g><g data-mml-node="mo" transform="translate(2808.6,0)"><path data-c="2E" d="M78 60Q78 84 95 102T138 120Q162 120 180 104T199 61Q199 36 182 18T139 0T96 17T78 60Z"></path></g></g></g></svg>
