<svg style="vertical-align: -0.566ex;" xmlns="http://www.w3.org/2000/svg" width="3.952ex" height="2.262ex" role="img" focusable="false" viewBox="0 -750 1747 1000"><g stroke="currentColor" fill="currentColor" stroke-width="0" transform="scale(1,-1)"><g data-mml-node="math"><g data-mml-node="mrow"><g data-mml-node="mo"><path data-c="27E8" d="M333 -232Q332 -239 327 -244T313 -250Q303 -250 296 -240Q293 -233 202 6T110 250T201 494T296 740Q299 745 306 749L309 750Q312 750 313 750Q331 750 333 732Q333 727 243 489Q152 252 152 250T243 11Q333 -227 333 -232Z"></path></g><g data-mml-node="mn" transform="translate(389,0)"><path data-c="31" d="M213 578L200 573Q186 568 160 563T102 556H83V602H102Q149 604 189 617T245 641T273 663Q275 666 285 666Q294 666 302 660V361L303 61Q310 54 315 52T339 48T401 46H427V0H416Q395 3 257 3Q121 3 100 0H88V46H114Q136 46 152 46T177 47T193 50T201 52T207 57T213 61V578Z"></path></g><g data-mml-node="mo" transform="translate(889,0)"><path data-c="27E9" d="M55 732Q56 739 61 744T75 750Q85 750 92 740Q95 733 186 494T278 250T187 6T92 -240Q85 -250 75 -250Q67 -250 62 -245T55 -232Q55 -227 145 11Q236 248 236 250T145 489Q55 727 55 732Z"></path></g></g><g data-mml-node="TeXAtom" data-mjx-texclass="ORD" transform="translate(1278,0)"><g data-mml-node="mi"><path data-c="1D460" d="M131 289Q131 321 147 354T203 415T300 442Q362 442 390 415T419 355Q419 323 402 308T364 292Q351 292 340 300T328 326Q328 342 337 354T354 372T367 378Q368 378 368 379Q368 382 361 388T336 399T297 405Q249 405 227 379T204 326Q204 301 223 291T278 274T330 259Q396 230 396 163Q396 135 385 107T352 51T289 7T195 -10Q118 -10 86 19T53 87Q53 126 74 143T118 160Q133 160 146 151T160 120Q160 94 142 76T111 58Q109 57 108 57T107 55Q108 52 115 47T146 34T201 27Q237 27 263 38T301 66T318 97T323 122Q323 150 302 164T254 181T195 196T148 231Q131 256 131 289Z"></path></g></g></g></g></svg>
