<svg style="vertical-align: -0.489ex;" xmlns="http://www.w3.org/2000/svg" width="14.496ex" height="2.057ex" role="img" focusable="false" viewBox="0 -693 6407.4 909"><g stroke="currentColor" fill="currentColor" stroke-width="0" transform="scale(1,-1)"><g data-mml-node="math"><g data-mml-node="mi"><path data-c="1D707" d="M58 -216Q44 -216 34 -208T23 -186Q23 -176 96 116T173 414Q186 442 219 442Q231 441 239 435T249 423T251 413Q251 401 220 279T187 142Q185 131 185 107V99Q185 26 252 26Q261 26 270 27T287 31T302 38T315 45T327 55T338 65T348 77T356 88T365 100L372 110L408 253Q444 395 448 404Q461 431 491 431Q504 431 512 424T523 412T525 402L449 84Q448 79 448 68Q448 43 455 35T476 26Q485 27 496 35Q517 55 537 131Q543 151 547 152Q549 153 557 153H561Q580 153 580 144Q580 138 575 117T555 63T523 13Q510 0 491 -8Q483 -10 467 -10Q446 -10 429 -4T402 11T385 29T376 44T374 51L368 45Q362 39 350 30T324 12T288 -4T246 -11Q199 -11 153 12L129 -85Q108 -167 104 -180T92 -202Q76 -216 58 -216Z"></path></g><g data-mml-node="mo" transform="translate(880.8,0)"><path data-c="2192" d="M56 237T56 250T70 270H835Q719 357 692 493Q692 494 692 496T691 499Q691 511 708 511H711Q720 511 723 510T729 506T732 497T735 481T743 456Q765 389 816 336T935 261Q944 258 944 250Q944 244 939 241T915 231T877 212Q836 186 806 152T761 85T740 35T732 4Q730 -6 727 -8T711 -11Q691 -11 691 0Q691 7 696 25Q728 151 835 230H70Q56 237 56 250Z"></path></g><g data-mml-node="mi" transform="translate(2158.6,0)"><path data-c="1D452" d="M39 168Q39 225 58 272T107 350T174 402T244 433T307 442H310Q355 442 388 420T421 355Q421 265 310 237Q261 224 176 223Q139 223 138 221Q138 219 132 186T125 128Q125 81 146 54T209 26T302 45T394 111Q403 121 406 121Q410 121 419 112T429 98T420 82T390 55T344 24T281 -1T205 -11Q126 -11 83 42T39 168ZM373 353Q367 405 305 405Q272 405 244 391T199 357T170 316T154 280T149 261Q149 260 169 260Q282 260 327 284T373 353Z"></path></g><g data-mml-node="mo" transform="translate(2846.8,0)"><path data-c="2B" d="M56 237T56 250T70 270H369V420L370 570Q380 583 389 583Q402 583 409 568V270H707Q722 262 722 250T707 230H409V-68Q401 -82 391 -82H389H387Q375 -82 369 -68V230H70Q56 237 56 250Z"></path></g><g data-mml-node="mi" transform="translate(3847,0)"><path data-c="1D708" d="M74 431Q75 431 146 436T219 442Q231 442 231 434Q231 428 185 241L137 51H140L150 55Q161 59 177 67T214 86T261 119T312 165Q410 264 445 394Q458 442 496 442Q509 442 519 434T530 411Q530 390 516 352T469 262T388 162T267 70T106 5Q81 -2 71 -2Q66 -2 59 -1T51 1Q45 5 45 11Q45 13 88 188L132 364Q133 377 125 380T86 385H65Q59 391 59 393T61 412Q65 431 74 431Z"></path></g><g data-mml-node="mo" transform="translate(4599.2,0)"><path data-c="2B" d="M56 237T56 250T70 270H369V420L370 570Q380 583 389 583Q402 583 409 568V270H707Q722 262 722 250T707 230H409V-68Q401 -82 391 -82H389H387Q375 -82 369 -68V230H70Q56 237 56 250Z"></path></g><g data-mml-node="TeXAtom" data-mjx-texclass="ORD" transform="translate(5599.4,0)"><g data-mml-node="mover"><g data-mml-node="mi"><path data-c="1D708" d="M74 431Q75 431 146 436T219 442Q231 442 231 434Q231 428 185 241L137 51H140L150 55Q161 59 177 67T214 86T261 119T312 165Q410 264 445 394Q458 442 496 442Q509 442 519 434T530 411Q530 390 516 352T469 262T388 162T267 70T106 5Q81 -2 71 -2Q66 -2 59 -1T51 1Q45 5 45 11Q45 13 88 188L132 364Q133 377 125 380T86 385H65Q59 391 59 393T61 412Q65 431 74 431Z"></path></g><g data-mml-node="mo" transform="translate(301.8,3) translate(-250 0)"><path data-c="AF" d="M69 544V590H430V544H69Z"></path></g></g></g><g data-mml-node="mo" transform="translate(6129.4,0)"><path data-c="2E" d="M78 60Q78 84 95 102T138 120Q162 120 180 104T199 61Q199 36 182 18T139 0T96 17T78 60Z"></path></g></g></g></svg>
