<svg style="vertical-align: -0.464ex;" xmlns="http://www.w3.org/2000/svg" width="8.334ex" height="2.043ex" role="img" focusable="false" viewBox="0 -698 3683.6 903"><g stroke="currentColor" fill="currentColor" stroke-width="0" transform="scale(1,-1)"><g data-mml-node="math"><g data-mml-node="TeXAtom" data-mjx-texclass="ORD"><g data-mml-node="mi"><path data-c="1D400" d="M296 0Q278 3 164 3Q58 3 49 0H40V62H92Q144 62 144 64Q388 682 397 689Q403 698 434 698Q463 698 471 689Q475 686 538 530T663 218L724 64Q724 62 776 62H828V0H817Q796 3 658 3Q509 3 485 0H472V62H517Q561 62 561 63L517 175H262L240 120Q218 65 217 64Q217 62 261 62H306V0H296ZM390 237L492 238L440 365Q390 491 388 491Q287 239 287 237H390Z"></path></g></g><g data-mml-node="mo" transform="translate(1146.8,0)"><path data-c="3D" d="M56 347Q56 360 70 367H707Q722 359 722 347Q722 336 708 328L390 327H72Q56 332 56 347ZM56 153Q56 168 72 173H708Q722 163 722 153Q722 140 707 133H70Q56 140 56 153Z"></path></g><g data-mml-node="TeXAtom" data-mjx-texclass="ORD" transform="translate(2202.6,0)"><g data-mml-node="mi"><path data-c="1D42F" d="M401 444Q413 441 495 441Q568 441 574 444H580V382H510L409 156Q348 18 339 6Q331 -4 320 -4Q318 -4 313 -4T303 -3H288Q273 -3 264 12T221 102Q206 135 197 156L96 382H26V444H34Q49 441 145 441Q252 441 270 444H279V382H231L284 264Q335 149 338 149Q338 150 389 264T442 381Q442 382 418 382H394V444H401Z"></path></g></g><g data-mml-node="mi" transform="translate(2809.6,0)"><path data-c="1D719" d="M409 688Q413 694 421 694H429H442Q448 688 448 686Q448 679 418 563Q411 535 404 504T392 458L388 442Q388 441 397 441T429 435T477 418Q521 397 550 357T579 260T548 151T471 65T374 11T279 -10H275L251 -105Q245 -128 238 -160Q230 -192 227 -198T215 -205H209Q189 -205 189 -198Q189 -193 211 -103L234 -11Q234 -10 226 -10Q221 -10 206 -8T161 6T107 36T62 89T43 171Q43 231 76 284T157 370T254 422T342 441Q347 441 348 445L378 567Q409 686 409 688ZM122 150Q122 116 134 91T167 53T203 35T237 27H244L337 404Q333 404 326 403T297 395T255 379T211 350T170 304Q152 276 137 237Q122 191 122 150ZM500 282Q500 320 484 347T444 385T405 400T381 404H378L332 217L284 29Q284 27 285 27Q293 27 317 33T357 47Q400 66 431 100T475 170T494 234T500 282Z"></path></g><g data-mml-node="mo" transform="translate(3405.6,0)"><path data-c="2E" d="M78 60Q78 84 95 102T138 120Q162 120 180 104T199 61Q199 36 182 18T139 0T96 17T78 60Z"></path></g></g></g></svg>
