<svg style="vertical-align: -0.457ex;" xmlns="http://www.w3.org/2000/svg" width="3.882ex" height="2.027ex" role="img" focusable="false" viewBox="0 -694 1716 896"><g stroke="currentColor" fill="currentColor" stroke-width="0" transform="scale(1,-1)"><g data-mml-node="math"><g data-mml-node="mi"><path data-c="1D6C1" d="M56 673Q56 679 65 686H892Q901 679 901 673Q901 668 714 331T521 -15Q518 -18 506 -24H452Q440 -19 436 -15Q431 -8 337 162T150 501L57 669Q57 670 56 672V673ZM528 136L758 553H297Q298 551 414 341L528 136Z"></path></g><g data-mml-node="TeXAtom" data-mjx-texclass="ORD" transform="translate(958,0)"><g data-mml-node="mi"><path data-c="1D74D" d="M244 141Q244 117 254 98T277 70T305 55T329 48T342 47L344 48L424 366Q501 678 505 686Q508 691 512 692T533 694T555 693T562 688T565 683Q565 678 486 362T406 45Q406 43 415 43Q467 49 514 78T590 143T636 213T653 266Q653 282 641 293T613 311T585 332T572 367Q572 397 598 425T657 453Q684 453 708 430T732 358Q732 330 723 287T706 225Q671 124 578 58T401 -8H393L370 -101Q346 -196 345 -197Q340 -202 316 -202H306Q286 -202 286 -188Q286 -187 296 -144T318 -57T331 -8Q331 -6 328 -6Q290 -6 233 11T148 62Q119 97 119 146Q119 181 154 275T190 388Q190 401 181 401Q154 401 129 375T90 306Q85 288 81 285T61 282H55H44Q24 282 24 296Q24 306 34 329T64 381T116 431T189 452Q237 452 273 428T309 362Q309 343 277 260T244 141Z"></path></g></g></g></g></svg>
