<svg style="vertical-align: 0;" xmlns="http://www.w3.org/2000/svg" width="3.523ex" height="1.62ex" role="img" focusable="false" viewBox="0 -716 1557 716"><g stroke="currentColor" fill="currentColor" stroke-width="0" transform="scale(1,-1)"><g data-mml-node="math"><g data-mml-node="mi"><path data-c="394" d="M51 0Q46 4 46 7Q46 9 215 357T388 709Q391 716 416 716Q439 716 444 709Q447 705 616 357T786 7Q786 4 781 0H51ZM507 344L384 596L137 92L383 91H630Q630 93 507 344Z"></path></g><g data-mml-node="TeXAtom" data-mjx-texclass="ORD" transform="translate(833,0)"><g data-mml-node="mi"><path data-c="1D405" d="M425 0L228 3Q63 3 51 0H39V62H147V618H39V680H644V676Q647 670 659 552T675 428V424H613Q613 433 605 477Q599 511 589 535T562 574T530 599T488 612T441 617T387 618H368H304V371H333Q389 373 411 390T437 468V488H499V192H437V212Q436 244 430 263T408 292T378 305T333 309H304V62H439V0H425Z"></path></g></g></g></g></svg>
