<svg style="vertical-align: -0.152ex;" xmlns="http://www.w3.org/2000/svg" width="8.662ex" height="1.722ex" role="img" focusable="false" viewBox="0 -694 3828.6 761"><g stroke="currentColor" fill="currentColor" stroke-width="0" transform="scale(1,-1)"><g data-mml-node="math"><g data-mml-node="mi"><path data-c="1D44A" d="M436 683Q450 683 486 682T553 680Q604 680 638 681T677 682Q695 682 695 674Q695 670 692 659Q687 641 683 639T661 637Q636 636 621 632T600 624T597 615Q597 603 613 377T629 138L631 141Q633 144 637 151T649 170T666 200T690 241T720 295T759 362Q863 546 877 572T892 604Q892 619 873 628T831 637Q817 637 817 647Q817 650 819 660Q823 676 825 679T839 682Q842 682 856 682T895 682T949 681Q1015 681 1034 683Q1048 683 1048 672Q1048 666 1045 655T1038 640T1028 637Q1006 637 988 631T958 617T939 600T927 584L923 578L754 282Q586 -14 585 -15Q579 -22 561 -22Q546 -22 542 -17Q539 -14 523 229T506 480L494 462Q472 425 366 239Q222 -13 220 -15T215 -19Q210 -22 197 -22Q178 -22 176 -15Q176 -12 154 304T131 622Q129 631 121 633T82 637H58Q51 644 51 648Q52 671 64 683H76Q118 680 176 680Q301 680 313 683H323Q329 677 329 674T327 656Q322 641 318 637H297Q236 634 232 620Q262 160 266 136L501 550L499 587Q496 629 489 632Q483 636 447 637Q428 637 422 639T416 648Q416 650 418 660Q419 664 420 669T421 676T424 680T428 682T436 683Z"></path></g><g data-mml-node="mo" transform="translate(1325.8,0)"><path data-c="226B" d="M55 539T55 547T60 561T74 567Q81 567 207 498Q297 449 365 412Q633 265 636 261Q639 255 639 250Q639 241 626 232Q614 224 365 88Q83 -65 79 -66Q76 -67 73 -67Q65 -67 60 -61T55 -47Q55 -39 61 -33Q62 -33 95 -15T193 39T320 109L321 110H322L323 111H324L325 112L326 113H327L329 114H330L331 115H332L333 116L334 117H335L336 118H337L338 119H339L340 120L341 121H342L343 122H344L345 123H346L347 124L348 125H349L351 126H352L353 127H354L355 128L356 129H357L358 130H359L360 131H361L362 132L363 133H364L365 134H366L367 135H368L369 136H370L371 137L372 138H373L374 139H375L376 140L378 141L576 251Q63 530 62 533Q55 539 55 547ZM360 539T360 547T365 561T379 567Q386 567 512 498Q602 449 670 412Q938 265 941 261Q944 255 944 250Q944 241 931 232Q919 224 670 88Q388 -65 384 -66Q381 -67 378 -67Q370 -67 365 -61T360 -47Q360 -39 366 -33Q367 -33 400 -15T498 39T625 109L626 110H627L628 111H629L630 112L631 113H632L634 114H635L636 115H637L638 116L639 117H640L641 118H642L643 119H644L645 120L646 121H647L648 122H649L650 123H651L652 124L653 125H654L656 126H657L658 127H659L660 128L661 129H662L663 130H664L665 131H666L667 132L668 133H669L670 134H671L672 135H673L674 136H675L676 137L677 138H678L679 139H680L681 140L683 141L881 251Q368 530 367 533Q360 539 360 547Z"></path></g><g data-mml-node="mi" transform="translate(2603.6,0)"><path data-c="1D458" d="M121 647Q121 657 125 670T137 683Q138 683 209 688T282 694Q294 694 294 686Q294 679 244 477Q194 279 194 272Q213 282 223 291Q247 309 292 354T362 415Q402 442 438 442Q468 442 485 423T503 369Q503 344 496 327T477 302T456 291T438 288Q418 288 406 299T394 328Q394 353 410 369T442 390L458 393Q446 405 434 405H430Q398 402 367 380T294 316T228 255Q230 254 243 252T267 246T293 238T320 224T342 206T359 180T365 147Q365 130 360 106T354 66Q354 26 381 26Q429 26 459 145Q461 153 479 153H483Q499 153 499 144Q499 139 496 130Q455 -11 378 -11Q333 -11 305 15T277 90Q277 108 280 121T283 145Q283 167 269 183T234 206T200 217T182 220H180Q168 178 159 139T145 81T136 44T129 20T122 7T111 -2Q98 -11 83 -11Q66 -11 57 -1T48 16Q48 26 85 176T158 471L195 616Q196 629 188 632T149 637H144Q134 637 131 637T124 640T121 647Z"></path></g><g data-mml-node="mi" transform="translate(3124.6,0)"><path data-c="1D447" d="M40 437Q21 437 21 445Q21 450 37 501T71 602L88 651Q93 669 101 677H569H659Q691 677 697 676T704 667Q704 661 687 553T668 444Q668 437 649 437Q640 437 637 437T631 442L629 445Q629 451 635 490T641 551Q641 586 628 604T573 629Q568 630 515 631Q469 631 457 630T439 622Q438 621 368 343T298 60Q298 48 386 46Q418 46 427 45T436 36Q436 31 433 22Q429 4 424 1L422 0Q419 0 415 0Q410 0 363 1T228 2Q99 2 64 0H49Q43 6 43 9T45 27Q49 40 55 46H83H94Q174 46 189 55Q190 56 191 56Q196 59 201 76T241 233Q258 301 269 344Q339 619 339 625Q339 630 310 630H279Q212 630 191 624Q146 614 121 583T67 467Q60 445 57 441T43 437H40Z"></path></g></g></g></svg>
