<svg style="vertical-align: -1.949ex;" xmlns="http://www.w3.org/2000/svg" width="17.923ex" height="5.051ex" role="img" focusable="false" viewBox="0 -1371 7922 2232.3"><g stroke="currentColor" fill="currentColor" stroke-width="0" transform="scale(1,-1)"><g data-mml-node="math"><g data-mml-node="mo"><path data-c="27E8" d="M333 -232Q332 -239 327 -244T313 -250Q303 -250 296 -240Q293 -233 202 6T110 250T201 494T296 740Q299 745 306 749L309 750Q312 750 313 750Q331 750 333 732Q333 727 243 489Q152 252 152 250T243 11Q333 -227 333 -232Z"></path></g><g data-mml-node="mi" transform="translate(389,0)"><path data-c="1D438" d="M492 213Q472 213 472 226Q472 230 477 250T482 285Q482 316 461 323T364 330H312Q311 328 277 192T243 52Q243 48 254 48T334 46Q428 46 458 48T518 61Q567 77 599 117T670 248Q680 270 683 272Q690 274 698 274Q718 274 718 261Q613 7 608 2Q605 0 322 0H133Q31 0 31 11Q31 13 34 25Q38 41 42 43T65 46Q92 46 125 49Q139 52 144 61Q146 66 215 342T285 622Q285 629 281 629Q273 632 228 634H197Q191 640 191 642T193 659Q197 676 203 680H757Q764 676 764 669Q764 664 751 557T737 447Q735 440 717 440H705Q698 445 698 453L701 476Q704 500 704 528Q704 558 697 578T678 609T643 625T596 632T532 634H485Q397 633 392 631Q388 629 386 622Q385 619 355 499T324 377Q347 376 372 376H398Q464 376 489 391T534 472Q538 488 540 490T557 493Q562 493 565 493T570 492T572 491T574 487T577 483L544 351Q511 218 508 216Q505 213 492 213Z"></path></g><g data-mml-node="mo" transform="translate(1153,0)"><path data-c="27E9" d="M55 732Q56 739 61 744T75 750Q85 750 92 740Q95 733 186 494T278 250T187 6T92 -240Q85 -250 75 -250Q67 -250 62 -245T55 -232Q55 -227 145 11Q236 248 236 250T145 489Q55 727 55 732Z"></path></g><g data-mml-node="mo" transform="translate(1819.8,0)"><path data-c="3D" d="M56 347Q56 360 70 367H707Q722 359 722 347Q722 336 708 328L390 327H72Q56 332 56 347ZM56 153Q56 168 72 173H708Q722 163 722 153Q722 140 707 133H70Q56 140 56 153Z"></path></g><g data-mml-node="mfrac" transform="translate(2875.6,0)"><g data-mml-node="mrow" transform="translate(1792.2,676)"><g data-mml-node="mi"><path data-c="210F" d="M182 599Q182 611 174 615T133 619Q118 619 114 621T109 630Q109 636 114 656T122 681Q125 685 202 688Q272 695 286 695Q304 695 304 684Q304 682 295 644T282 597Q282 592 360 592H399Q430 592 445 587T460 563Q460 552 451 541L442 535H266L251 468Q247 453 243 436T236 409T233 399Q233 395 244 404Q295 441 357 441Q405 441 445 417T485 333Q485 284 449 178T412 58T426 44Q447 44 466 68Q485 87 500 130L509 152H531H543Q562 152 562 144Q562 128 546 93T494 23T415 -13Q385 -13 359 3T322 44Q318 52 318 77Q318 99 352 196T386 337Q386 386 346 386Q318 386 286 370Q267 361 245 338T211 292Q207 287 193 235T162 113T138 21Q128 7 122 4Q105 -12 83 -12Q66 -12 54 -2T42 26L166 530Q166 534 161 534T129 535Q127 535 122 535T112 534Q74 534 74 562Q74 570 77 576T84 585T96 589T109 591T124 592T138 592L182 595V599Z"></path></g><g data-mml-node="mi" transform="translate(562,0)"><path data-c="1D714" d="M495 384Q495 406 514 424T555 443Q574 443 589 425T604 364Q604 334 592 278T555 155T483 38T377 -11Q297 -11 267 66Q266 68 260 61Q201 -11 125 -11Q15 -11 15 139Q15 230 56 325T123 434Q135 441 147 436Q160 429 160 418Q160 406 140 379T94 306T62 208Q61 202 61 187Q61 124 85 100T143 76Q201 76 245 129L253 137V156Q258 297 317 297Q348 297 348 261Q348 243 338 213T318 158L308 135Q309 133 310 129T318 115T334 97T358 83T393 76Q456 76 501 148T546 274Q546 305 533 325T508 357T495 384Z"></path></g></g><g data-mml-node="mrow" transform="translate(220,-779.3)"><g data-mml-node="msup"><g data-mml-node="mi"><path data-c="1D452" d="M39 168Q39 225 58 272T107 350T174 402T244 433T307 442H310Q355 442 388 420T421 355Q421 265 310 237Q261 224 176 223Q139 223 138 221Q138 219 132 186T125 128Q125 81 146 54T209 26T302 45T394 111Q403 121 406 121Q410 121 419 112T429 98T420 82T390 55T344 24T281 -1T205 -11Q126 -11 83 42T39 168ZM373 353Q367 405 305 405Q272 405 244 391T199 357T170 316T154 280T149 261Q149 260 169 260Q282 260 327 284T373 353Z"></path></g><g data-mml-node="TeXAtom" transform="translate(499,289) scale(0.707)" data-mjx-texclass="ORD"><g data-mml-node="mi"><path data-c="210F" d="M182 599Q182 611 174 615T133 619Q118 619 114 621T109 630Q109 636 114 656T122 681Q125 685 202 688Q272 695 286 695Q304 695 304 684Q304 682 295 644T282 597Q282 592 360 592H399Q430 592 445 587T460 563Q460 552 451 541L442 535H266L251 468Q247 453 243 436T236 409T233 399Q233 395 244 404Q295 441 357 441Q405 441 445 417T485 333Q485 284 449 178T412 58T426 44Q447 44 466 68Q485 87 500 130L509 152H531H543Q562 152 562 144Q562 128 546 93T494 23T415 -13Q385 -13 359 3T322 44Q318 52 318 77Q318 99 352 196T386 337Q386 386 346 386Q318 386 286 370Q267 361 245 338T211 292Q207 287 193 235T162 113T138 21Q128 7 122 4Q105 -12 83 -12Q66 -12 54 -2T42 26L166 530Q166 534 161 534T129 535Q127 535 122 535T112 534Q74 534 74 562Q74 570 77 576T84 585T96 589T109 591T124 592T138 592L182 595V599Z"></path></g><g data-mml-node="mi" transform="translate(562,0)"><path data-c="1D714" d="M495 384Q495 406 514 424T555 443Q574 443 589 425T604 364Q604 334 592 278T555 155T483 38T377 -11Q297 -11 267 66Q266 68 260 61Q201 -11 125 -11Q15 -11 15 139Q15 230 56 325T123 434Q135 441 147 436Q160 429 160 418Q160 406 140 379T94 306T62 208Q61 202 61 187Q61 124 85 100T143 76Q201 76 245 129L253 137V156Q258 297 317 297Q348 297 348 261Q348 243 338 213T318 158L308 135Q309 133 310 129T318 115T334 97T358 83T393 76Q456 76 501 148T546 274Q546 305 533 325T508 357T495 384Z"></path></g><g data-mml-node="TeXAtom" data-mjx-texclass="ORD" transform="translate(1184,0)"><g data-mml-node="mo"><path data-c="2F" d="M423 750Q432 750 438 744T444 730Q444 725 271 248T92 -240Q85 -250 75 -250Q68 -250 62 -245T56 -231Q56 -221 230 257T407 740Q411 750 423 750Z"></path></g></g><g data-mml-node="mi" transform="translate(1684,0)"><path data-c="1D458" d="M121 647Q121 657 125 670T137 683Q138 683 209 688T282 694Q294 694 294 686Q294 679 244 477Q194 279 194 272Q213 282 223 291Q247 309 292 354T362 415Q402 442 438 442Q468 442 485 423T503 369Q503 344 496 327T477 302T456 291T438 288Q418 288 406 299T394 328Q394 353 410 369T442 390L458 393Q446 405 434 405H430Q398 402 367 380T294 316T228 255Q230 254 243 252T267 246T293 238T320 224T342 206T359 180T365 147Q365 130 360 106T354 66Q354 26 381 26Q429 26 459 145Q461 153 479 153H483Q499 153 499 144Q499 139 496 130Q455 -11 378 -11Q333 -11 305 15T277 90Q277 108 280 121T283 145Q283 167 269 183T234 206T200 217T182 220H180Q168 178 159 139T145 81T136 44T129 20T122 7T111 -2Q98 -11 83 -11Q66 -11 57 -1T48 16Q48 26 85 176T158 471L195 616Q196 629 188 632T149 637H144Q134 637 131 637T124 640T121 647Z"></path></g><g data-mml-node="mi" transform="translate(2205,0)"><path data-c="1D447" d="M40 437Q21 437 21 445Q21 450 37 501T71 602L88 651Q93 669 101 677H569H659Q691 677 697 676T704 667Q704 661 687 553T668 444Q668 437 649 437Q640 437 637 437T631 442L629 445Q629 451 635 490T641 551Q641 586 628 604T573 629Q568 630 515 631Q469 631 457 630T439 622Q438 621 368 343T298 60Q298 48 386 46Q418 46 427 45T436 36Q436 31 433 22Q429 4 424 1L422 0Q419 0 415 0Q410 0 363 1T228 2Q99 2 64 0H49Q43 6 43 9T45 27Q49 40 55 46H83H94Q174 46 189 55Q190 56 191 56Q196 59 201 76T241 233Q258 301 269 344Q339 619 339 625Q339 630 310 630H279Q212 630 191 624Q146 614 121 583T67 467Q60 445 57 441T43 437H40Z"></path></g></g></g><g data-mml-node="mo" transform="translate(2828.2,0)"><path data-c="2212" d="M84 237T84 250T98 270H679Q694 262 694 250T679 230H98Q84 237 84 250Z"></path></g><g data-mml-node="mn" transform="translate(3828.4,0)"><path data-c="31" d="M213 578L200 573Q186 568 160 563T102 556H83V602H102Q149 604 189 617T245 641T273 663Q275 666 285 666Q294 666 302 660V361L303 61Q310 54 315 52T339 48T401 46H427V0H416Q395 3 257 3Q121 3 100 0H88V46H114Q136 46 152 46T177 47T193 50T201 52T207 57T213 61V578Z"></path></g></g><rect width="4528.4" height="60" x="120" y="220"></rect></g><g data-mml-node="mo" transform="translate(7644,0)"><path data-c="2E" d="M78 60Q78 84 95 102T138 120Q162 120 180 104T199 61Q199 36 182 18T139 0T96 17T78 60Z"></path></g></g></g></svg>
