<svg style="vertical-align: -0.566ex;" xmlns="http://www.w3.org/2000/svg" width="3.845ex" height="2.452ex" role="img" focusable="false" viewBox="0 -833.9 1699.6 1083.9"><g stroke="currentColor" fill="currentColor" stroke-width="0" transform="scale(1,-1)"><g data-mml-node="math"><g data-mml-node="mo"><path data-c="27E8" d="M333 -232Q332 -239 327 -244T313 -250Q303 -250 296 -240Q293 -233 202 6T110 250T201 494T296 740Q299 745 306 749L309 750Q312 750 313 750Q331 750 333 732Q333 727 243 489Q152 252 152 250T243 11Q333 -227 333 -232Z"></path></g><g data-mml-node="msup" transform="translate(389,0)"><g data-mml-node="mi"><path data-c="1D463" d="M173 380Q173 405 154 405Q130 405 104 376T61 287Q60 286 59 284T58 281T56 279T53 278T49 278T41 278H27Q21 284 21 287Q21 294 29 316T53 368T97 419T160 441Q202 441 225 417T249 361Q249 344 246 335Q246 329 231 291T200 202T182 113Q182 86 187 69Q200 26 250 26Q287 26 319 60T369 139T398 222T409 277Q409 300 401 317T383 343T365 361T357 383Q357 405 376 424T417 443Q436 443 451 425T467 367Q467 340 455 284T418 159T347 40T241 -11Q177 -11 139 22Q102 54 102 117Q102 148 110 181T151 298Q173 362 173 380Z"></path></g><g data-mml-node="mn" transform="translate(518,363) scale(0.707)"><path data-c="32" d="M109 429Q82 429 66 447T50 491Q50 562 103 614T235 666Q326 666 387 610T449 465Q449 422 429 383T381 315T301 241Q265 210 201 149L142 93L218 92Q375 92 385 97Q392 99 409 186V189H449V186Q448 183 436 95T421 3V0H50V19V31Q50 38 56 46T86 81Q115 113 136 137Q145 147 170 174T204 211T233 244T261 278T284 308T305 340T320 369T333 401T340 431T343 464Q343 527 309 573T212 619Q179 619 154 602T119 569T109 550Q109 549 114 549Q132 549 151 535T170 489Q170 464 154 447T109 429Z"></path></g></g><g data-mml-node="mo" transform="translate(1310.6,0)"><path data-c="27E9" d="M55 732Q56 739 61 744T75 750Q85 750 92 740Q95 733 186 494T278 250T187 6T92 -240Q85 -250 75 -250Q67 -250 62 -245T55 -232Q55 -227 145 11Q236 248 236 250T145 489Q55 727 55 732Z"></path></g></g></g></svg>
