<svg style="vertical-align: -0.355ex;" xmlns="http://www.w3.org/2000/svg" width="2.648ex" height="1.894ex" role="img" focusable="false" viewBox="0 -680 1170.6 837.1"><g stroke="currentColor" fill="currentColor" stroke-width="0" transform="scale(1,-1)"><g data-mml-node="math"><g data-mml-node="msub"><g data-mml-node="TeXAtom" data-mjx-texclass="ORD"><g data-mml-node="mi"><path data-c="1D404" d="M723 286Q721 284 700 145T677 3V0H39V62H147V618H39V680H660V676Q662 670 675 552T691 428V424H629V428Q629 429 627 448T618 494T601 541Q574 593 527 605T382 618H374H304V384H336Q338 384 347 384T361 384T376 386T392 390T407 397T421 407T432 423Q442 444 443 482V501H505V205H443V224Q442 258 435 278T411 307T380 318T336 322H304V62H375H394Q429 62 449 62T497 66T541 76T577 95T609 126T632 170T651 232Q661 287 661 289H723V286Z"></path></g></g><g data-mml-node="mi" transform="translate(789,-150) scale(0.707)"><path data-c="1D460" d="M131 289Q131 321 147 354T203 415T300 442Q362 442 390 415T419 355Q419 323 402 308T364 292Q351 292 340 300T328 326Q328 342 337 354T354 372T367 378Q368 378 368 379Q368 382 361 388T336 399T297 405Q249 405 227 379T204 326Q204 301 223 291T278 274T330 259Q396 230 396 163Q396 135 385 107T352 51T289 7T195 -10Q118 -10 86 19T53 87Q53 126 74 143T118 160Q133 160 146 151T160 120Q160 94 142 76T111 58Q109 57 108 57T107 55Q108 52 115 47T146 34T201 27Q237 27 263 38T301 66T318 97T323 122Q323 150 302 164T254 181T195 196T148 231Q131 256 131 289Z"></path></g></g></g></g></svg>
