<svg style="vertical-align: -0.339ex;" xmlns="http://www.w3.org/2000/svg" width="2.954ex" height="1.919ex" role="img" focusable="false" viewBox="0 -698 1305.6 848"><g stroke="currentColor" fill="currentColor" stroke-width="0" transform="scale(1,-1)"><g data-mml-node="math"><g data-mml-node="msub"><g data-mml-node="TeXAtom" data-mjx-texclass="ORD"><g data-mml-node="mi"><path data-c="1D400" d="M296 0Q278 3 164 3Q58 3 49 0H40V62H92Q144 62 144 64Q388 682 397 689Q403 698 434 698Q463 698 471 689Q475 686 538 530T663 218L724 64Q724 62 776 62H828V0H817Q796 3 658 3Q509 3 485 0H472V62H517Q561 62 561 63L517 175H262L240 120Q218 65 217 64Q217 62 261 62H306V0H296ZM390 237L492 238L440 365Q390 491 388 491Q287 239 287 237H390Z"></path></g></g><g data-mml-node="mn" transform="translate(902,-150) scale(0.707)"><path data-c="31" d="M213 578L200 573Q186 568 160 563T102 556H83V602H102Q149 604 189 617T245 641T273 663Q275 666 285 666Q294 666 302 660V361L303 61Q310 54 315 52T339 48T401 46H427V0H416Q395 3 257 3Q121 3 100 0H88V46H114Q136 46 152 46T177 47T193 50T201 52T207 57T213 61V578Z"></path></g></g></g></g></svg>
