<svg style="vertical-align: -0.023ex;" xmlns="http://www.w3.org/2000/svg" width="5.157ex" height="2.087ex" role="img" focusable="false" viewBox="0 -912.4 2279.5 922.4"><g stroke="currentColor" fill="currentColor" stroke-width="0" transform="scale(1,-1)"><g data-mml-node="math"><g data-mml-node="msup"><g data-mml-node="mn"><path data-c="1D7CF" d="M481 0L294 3Q136 3 109 0H96V62H227V304Q227 546 225 546Q169 529 97 529H80V591H97Q231 591 308 647L319 655H333Q355 655 359 644Q361 640 361 351V62H494V0H481Z"></path><path data-c="1D7CE" d="M266 654H280H282Q500 654 524 418Q529 370 529 320Q529 125 456 52Q397 -10 287 -10Q110 -10 63 154Q45 212 45 316Q45 504 113 585Q140 618 185 636T266 654ZM374 548Q347 604 286 604Q247 604 218 575Q197 552 193 511T188 311Q188 159 196 116Q202 87 225 64T287 41Q339 41 367 87Q379 107 382 152T386 329Q386 518 374 548Z" transform="translate(575,0)"></path></g><g data-mml-node="TeXAtom" transform="translate(1183,382.1) scale(0.707)" data-mjx-texclass="ORD"><g data-mml-node="mi"><path data-c="1D48A" d="M205 615Q205 646 229 670T283 694Q310 694 324 679T339 641Q339 610 315 586T258 562Q235 562 220 577T205 615ZM24 296Q24 305 34 328T63 380T115 430T187 452Q205 452 223 448T262 435T295 406T308 360Q308 345 287 290T240 170T207 87Q202 67 202 57Q202 42 215 42Q235 42 257 64Q288 92 302 140Q307 156 310 159T330 162H336H347Q367 162 367 148Q367 140 357 117T329 65T276 14T201 -8Q158 -8 121 15T83 84Q83 104 133 229T184 358Q189 376 189 388Q189 402 177 402Q156 402 134 380Q103 352 89 304Q84 288 81 285T61 282H55H44Q24 282 24 296Z"></path></g><g data-mml-node="TeXAtom" data-mjx-texclass="ORD" transform="translate(405,0)"><g data-mml-node="mo"><path data-c="2F" d="M423 750Q432 750 438 744T444 730Q444 725 271 248T92 -240Q85 -250 75 -250Q68 -250 62 -245T56 -231Q56 -221 230 257T407 740Q411 750 423 750Z"></path></g></g><g data-mml-node="mn" transform="translate(905,0)"><path data-c="1D7D6" d="M80 474Q80 561 139 607T278 654Q357 654 411 632Q490 593 494 509Q494 424 416 376L407 371L418 364Q432 356 447 345T481 312T513 260T526 192Q526 100 461 45T285 -11Q184 -11 116 32T48 164Q48 181 50 196T58 225T69 249T84 270T100 286T117 300T134 311T149 321T162 329L152 336Q120 360 100 397T80 474ZM347 404Q404 446 404 503Q404 579 317 599Q309 600 276 600Q178 600 170 538Q170 532 171 527T173 518T178 509T184 501T194 492T205 484T219 476T235 467T254 456T275 445L347 404ZM289 47Q323 47 351 54T402 82T425 137Q425 147 421 161Q411 183 391 197T303 249Q224 293 223 293Q220 291 215 288T197 273T175 248T157 213T149 167Q149 109 188 78T289 47Z"></path></g></g></g></g></g></svg>
